# AST/ASF file generated using VICON BodyLanguage
# -----------------------------------------------
:version 1.10
:name VICON
:units
  mass 1.0
  length 0.45
  angle deg
:documentation
   .ast/.asf automatically generated from VICON data using
   VICON BodyBuilder and BodyLanguage model FoxedUp or BRILLIANT.MOD
:root
   order TX TY TZ RX RY RZ
   axis XYZ
   position 0 0 0  
   orientation 0 0 0 
:bonedata
  begin
     id 1 
     name lhipjoint
     direction 0.535335 -0.74333 0.401095 
     length 2.04549 
     axis 0 0 0  XYZ
  end
  begin
     id 2 
     name lfemur
     direction 0.34202 -0.939693 0  
     length 6.95643  
     axis 0 0 20  XYZ
    dof rx ry rz
    limits (-160.0 20.0)
           (-70.0 70.0)
           (-60.0 70.0)
  end
  begin
     id 3 
     name ltibia
     direction 0.34192 -0.939729 0   
     length 5.55969   
     axis 0 0 20   XYZ
    dof rx
    limits (-10.0 170.0)
  end
  begin
     id 4 
     name lfoot
     direction 0.216943 -0.596046 0.773088   
     length 2.27918   
     axis -90 7.62852e-016 20   XYZ
    dof rx rz
    limits (-45.0 90.0)
           (-70.0 20.0)
  end
  begin
     id 5 
     name ltoes
     direction 1.53519e-011 -4.21748e-011 1   
     length 1.05562   
     axis -90 7.62852e-016 20   XYZ
    dof rx
    limits (-90.0 20.0)
  end
  begin
     id 6 
     name rhipjoint
     direction -0.576368 -0.719173 0.38806   
     length 2.1142  
     axis 0 0 0  XYZ 
  end
  begin
     id 7 
     name rfemur
     direction -0.34202 -0.939693 0   
     length 7.07928   
     axis 0 0 -20   XYZ
    dof rx ry rz
    limits (-160.0 20.0)
           (-70.0 70.0)
           (-70.0 60.0)
  end
  begin
     id 8 
     name rtibia
     direction -0.34202 -0.939693 0   
     length 5.79974   
     axis 0 0 -20   XYZ
    dof rx
    limits (-10.0 170.0)
 end
 begin
     id 9 
     name rfoot
     direction -0.189288 -0.520065 0.832888   
     length 2.42173  
     axis -90 -7.62852e-016 -20   XYZ
    dof rx rz
    limits (-45.0 90.0)
           (-20.0 70.0)
  end
  begin
     id 10 
     name rtoes
     direction -1.53574e-011 -4.21658e-011 1   
     length 1.14469   
     axis -90 -7.62852e-016 -20   XYZ
    dof rx
    limits (-90.0 20.0)
  end
  begin
     id 11 
     name lowerback
     direction -0.00135702 0.993803 0.111144   
     length 1.91308   
     axis 0 0 0   XYZ
    dof rx ry rz
    limits (-20.0 45.0)
           (-30.0 30.0)
           (-30.0 30.0)
  end
  begin
     id 12 
     name upperback
     direction -0.0056745 0.999813 0.0184631   
     length 1.9212   
     axis 0 0 0   XYZ
    dof rx ry rz
    limits (-20.0 45.0)
           (-30.0 30.0)
           (-30.0 30.0)
  end
  begin
     id 13 
     name thorax
     direction -0.00733434 0.999426 -0.0330788   
     length 1.94196   
     axis 0 0 0   XYZ
    dof rx ry rz
    limits (-20.0 45.0)
           (-30.0 30.0)
           (-30.0 30.0)
  end
  begin
     id 14 
     name lowerneck
     direction 0.0563074 0.996944 -0.0541571   
     length 2.34257   
     axis 0 0 0   XYZ
    dof rx ry rz
    limits (-20.0 45.0)
           (-30.0 30.0)
           (-30.0 30.0)
  end
  begin
     id 15 
     name upperneck
     direction -0.0544519 0.976166 -0.210085   
     length 2.32506   
     axis 0 0 0   XYZ
    dof rx ry rz
    limits (-20.0 45.0)
           (-30.0 30.0)
           (-30.0 30.0)
  end
  begin
     id 16
     name head
     direction -0.0226035 0.997615 -0.0652205  
     length 2.3648  
     axis 0 0 0   XYZ
    dof rx ry rz
    limits (-20.0 45.0)
           (-30.0 30.0)
           (-30.0 30.0)
  end
  begin
     id 17 
     name lclavicle
     direction 0.92109 0.381297 -0.0787716  
     length 4.0487  
     axis 0 0 0   XYZ
    dof ry rz
    limits (-20.0 10.0)
           (0.0 20.0)
  end
  begin
     id 18 
     name lhumerus
     direction 1 -4.48986e-011 3.56724e-027   
     length 4.94991   
     axis 180 -30 -90   XYZ
    dof rx ry rz
    limits (-60.0 90.0)
           (-90.0 90.0)
           (-90.0 90.0)
  end
  begin
     id 19
     name lradius
     direction 1 -4.48981e-011 8.62147e-027   
     length 2.7606   
     axis 180 -30 -90   XYZ
    dof rx
    limits (-10.0 170.0)
  end
  begin
     id 20
     name lwrist
     direction 1 -4.48989e-011 1.59799e-026   
     length 1.3803   
     axis -1.17785e-014 90 90   XYZ
    dof ry
    limits (-180.0 0.0)
 end
  begin
     id 21 
     name lhand
     direction 1 -4.48896e-011 3.19599e-026   
     length 0.843936   
     axis -2.03931e-014 90 90   XYZ
    dof rx rz
    limits (-90.0 90.0)
           (-45.0 45.0)
  end
  begin
     id 22 
     name lfingers
     direction 1 -4.48887e-011 6.39197e-026   
     length 0.680403   
     axis -4.07862e-014 90 90   XYZ
    dof rx
    limits (0.0 90.0)
  end
  begin
     id 23
     name lthumb
     direction 0.707107 -6.348e-011 0.707107   
     length 0.976926   
     axis -90 45 2.85299e-015   XYZ
    dof rx rz
    limits (-45.0 45.0)
           (-45.0 45.0)
  end
  begin
     id 24 
     name rclavicle
     direction -0.951104 0.307692 -0.026953   
     length 4.21801  
     axis 0 0 0   XYZ 
    dof ry rz
    limits (-10.0 20.0)
           (-20.0 0.0)
  end
  begin
     id 25 
     name rhumerus
     direction -1 -4.4896e-011 -1.8171e-018  
     length 4.32982   
     axis 180 30 90   XYZ
    dof rx ry rz
    limits (-90.0 60.0)
           (-90.0 90.0)
           (-90.0 90.0)
  end
  begin
     id 26 
     name rradius
     direction -1 -4.48959e-011 8.25165e-027   
     length 3.20057   
     axis 180 30 90   XYZ
    dof rx
    limits (-10.0 170.0)
  end
  begin
     id 27 
     name rwrist
     direction -1 -4.48997e-011 1.59799e-026   
     length 1.60029   
     axis -1.17785e-014 -90 -90   XYZ
    dof ry
    limits (-180.0 0.0)
  end
  begin
     id 28
     name rhand
     direction -1 -4.49023e-011 3.19599e-026   
     length 0.960433   
     axis -2.03931e-014 -90 -90   XYZ
    dof rx rz
    limits (-90.0 90.0)
           (-45.0 45.0)
  end
  begin
     id 29
     name rfingers
     direction -1 -4.48802e-011 6.39197e-026   
     length 0.774326   
     axis -4.07862e-014 -90 -90   XYZ
    dof rx
    limits (0.0 90.0)
  end
  begin
     id 30
     name rthumb
     direction -0.707107 -6.34876e-011 0.707107   
     length 1.11178   
     axis -90 -45 -2.85299e-015   XYZ
    dof rx rz
    limits (-45.0 45.0)
           (-45.0 45.0)
  end
:hierarchy
  begin
    root lhipjoint rhipjoint lowerback
    lhipjoint lfemur
    lfemur ltibia
    ltibia lfoot
    lfoot ltoes
    rhipjoint rfemur
    rfemur rtibia
    rtibia rfoot
    rfoot rtoes
    lowerback upperback
    upperback thorax
    thorax lowerneck lclavicle rclavicle
    lowerneck upperneck
    upperneck head
    lclavicle lhumerus
    lhumerus lradius
    lradius lwrist
    lwrist lhand lthumb
    lhand lfingers
    rclavicle rhumerus
    rhumerus rradius
    rradius rwrist
    rwrist rhand rthumb
    rhand rfingers
end

#!OML:ASF C:\KaitlinTest1\Natural Motions\Nikki\Session 2\Nikki.ASF
:FULLY-SPECIFIED
:DEGREES
841
root 0.25159 16.5132 5.08807 -152.471 80.0896 -159.293
lowerback -6.31315 2.06178 -0.453616
upperback -2.62205 2.89405 -2.63298
thorax 0.949206 1.47581 -2.24818
lowerneck -6.52464 -17.8775 -8.45514
upperneck 7.70054 41.5694 5.00052
head 116.398 73.2565 -87.0377
rclavicle 2.95444e-014 1.59028e-014
rhumerus -0.0279936 -8.34213 -97.2253
rradius 3.91831
rwrist 28.0849
rhand -26.0832 -9.37836
rfingers 7.12502
rthumb 0.465362 -39.3576
lclavicle 2.95444e-014 1.59028e-014
lhumerus -45.6382 18.4453 68.0302
lradius 23.7447
lwrist -27.4473
lhand -36.9553 4.127
lfingers 7.12502
lthumb -10.0315 33.8679
rfemur -15.6529 -14.4396 23.4964
rtibia 26.6974
rfoot -14.1239 5.9554
rtoes -3.57812e-014
lfemur -20.7746 14.3284 -18.063
ltibia 29.6312
lfoot -8.11664 -22.5039
ltoes 5.24792e-014
842
root 0.230411 16.5156 5.08683 -152.403 80.2996 -159.302
lowerback -6.25578 2.07435 -0.60442
upperback -2.6283 2.91973 -2.67275
thorax 0.906537 1.48957 -2.20525
lowerneck -6.62288 -17.9051 -8.31106
upperneck 7.71321 41.6316 5.02262
head 116.223 73.1766 -87.1904
rclavicle 5.74923e-015 -9.54166e-015
rhumerus -0.239661 -8.20246 -97.2607
rradius 3.91248
rwrist 27.9871
rhand -26.0869 -9.4021
rfingers 7.12502
rthumb 0.461772 -39.3813
lclavicle 5.74923e-015 -9.54166e-015
lhumerus -45.7612 18.6028 67.8306
lradius 23.7485
lwrist -27.5886
lhand -36.8645 4.12333
lfingers 7.12502
lthumb -9.94388 33.8685
rfemur -15.9599 -14.2297 23.4145
rtibia 26.9231
rfoot -14.0464 5.95111
rtoes -2.3059e-014
lfemur -20.9066 14.5463 -18.2309
ltibia 29.5105
lfoot -7.84815 -22.5617
ltoes 7.95139e-015
843
root 0.210057 16.5176 5.08723 -152.141 80.4725 -159.133
lowerback -6.1162 2.10223 -0.66529
upperback -2.71198 2.96013 -2.77296
thorax 0.746517 1.51084 -2.27921
lowerneck -6.64958 -17.9391 -8.11772
upperneck 7.79373 41.7936 5.13712
head 116.618 73.0837 -86.859
rclavicle -6.85186e-015 3.18055e-015
rhumerus -0.654761 -8.18114 -97.3254
rradius 4.05295
rwrist 27.7244
rhand -26.1056 -9.30942
rfingers 7.12502
rthumb 0.4438 -39.2887
lclavicle -6.85186e-015 3.18055e-015
lhumerus -46.0101 18.4744 67.5856
lradius 23.8195
lwrist -27.7286
lhand -36.7326 4.00502
lfingers 7.12502
lthumb -9.81671 33.7562
rfemur -16.2743 -13.9273 23.3925
rtibia 27.1598
rfoot -14.0688 5.82859
rtoes 4.45278e-014
lfemur -21.0539 14.8494 -18.3525
ltibia 29.3595
lfoot -7.60692 -22.7561
ltoes -3.18055e-015
844
root 0.163877 16.5314 5.07767 -154.49 80.9948 -162.308
lowerback -6.63922 2.05084 -1.34677
upperback -2.79253 2.95902 -2.97393
thorax 0.930293 1.5188 -2.08638
lowerneck -7.08214 -17.9703 -7.87661
upperneck 7.68047 41.7845 5.08048
head 115.802 73.0126 -87.6325
rclavicle -1.45299e-014 2.8625e-014
rhumerus -0.631721 -7.85857 -97.3693
rradius 4.06528
rwrist 27.5151
rhand -26.1804 -9.18589
rfingers 7.12502
rthumb 0.371463 -39.1653
lclavicle -1.45299e-014 2.8625e-014
lhumerus -45.9636 18.5524 67.6892
lradius 23.93
lwrist -27.4909
lhand -36.8101 3.96174
lfingers 7.12502
lthumb -9.89147 33.7094
rfemur -17.5113 -14.7061 22.7989
rtibia 27.4204
rfoot -14.1072 6.90195
rtoes -2.46493e-014
lfemur -21.9822 15.078 -19.545
ltibia 29.1809
lfoot -7.28289 -22.7402
ltoes 4.92986e-014
